<svg width="34" height="35" viewBox="0 0 34 35" fill="none" xmlns="http://www.w3.org/2000/svg">
    <path
        d="M2.58956 17.1586C4.26862 23.4366 8.76508 26.3711 14.7414 25.1437C15.1398 25.0591 15.524 24.9745 15.9224 24.8898L15.7091 22.4914C15.3391 22.6325 15.1682 22.6748 14.9691 22.7313C9.97458 24.0292 6.24649 21.7578 4.85203 16.566L2.47573 7.76267C2.20537 6.73278 2.58956 6.02738 3.62829 5.75933L16.2212 2.40162C17.26 2.13357 17.9572 2.5427 18.2418 3.60081L20.6181 12.3759C20.9454 13.5751 21.0876 14.7038 21.045 15.7196L23.279 13.8573C23.1936 13.1801 23.0655 12.4748 22.8664 11.7693L20.4758 2.8954C19.8071 0.48293 18.1279 -0.4482 15.6379 0.200769L2.98798 3.54437C0.512077 4.19333 -0.455517 5.82987 0.199032 8.28466L2.58956 17.1586ZM8.05363 12.1644C8.9643 11.9528 9.41964 12.3618 9.7896 12.2631C10.0884 12.1926 10.2023 11.854 10.0742 11.3743C9.78959 10.2316 8.58011 9.5685 7.47022 9.90709C6.30341 10.2034 5.60618 11.3461 5.91922 12.4607C6.06151 12.9544 6.34611 13.1942 6.61646 13.1237C7.00065 13.0109 7.15717 12.4183 8.05363 12.1644ZM15.6236 10.1469C16.5343 9.89298 16.9896 10.3303 17.3596 10.2316C17.6584 10.161 17.7723 9.80833 17.6442 9.35688C17.3454 8.21413 16.1644 7.57926 15.026 7.87553C13.8734 8.18591 13.162 9.32866 13.4892 10.4432C13.6315 10.9229 13.9019 11.1627 14.1722 11.0922C14.5707 10.9793 14.7129 10.3727 15.6236 10.1469ZM14.2149 19.7827C16.7051 19.1055 18.313 17.2432 18.3841 14.9154C18.3983 14.3229 17.9146 14.1113 17.3738 14.4922C15.9793 15.4798 14.3145 15.9876 13.3327 16.2557C12.294 16.552 10.5864 16.961 8.79354 16.7777C8.18168 16.6931 7.82596 17.1445 8.15323 17.6382C9.39118 19.5992 11.739 20.4458 14.2149 19.7827ZM9.87498 32.7339C13.1192 35.767 18.7398 35.767 21.6853 32.6633C24.2038 30.0392 24.2324 26.5827 21.5999 24.1421C19.1241 21.8283 16.0221 21.7013 14.0157 23.8458C12.109 25.8492 13.3043 28.05 12.2513 29.1646C11.3121 30.1238 10.2449 29.8699 9.59039 30.5895C9.10659 31.1397 9.04968 31.972 9.87498 32.7339ZM12.7066 32.0285C12.4789 31.8591 12.4647 31.6617 12.5643 31.5065C12.735 31.2949 13.5177 31.1114 14.0157 30.406C15.1256 28.8259 14.3287 26.9636 15.6805 25.4541C16.8047 24.2126 18.6688 24.2691 20.1628 25.6235C21.8703 27.1471 21.7564 29.3761 20.1201 31.1538C18.313 33.1712 15.0403 33.7214 12.7066 32.0285ZM23.0087 27.0483C24.4743 26.611 25.6268 25.6376 26.8221 23.9728C30.5076 18.7246 33.4387 9.93531 33.766 9.00418C34.8475 5.99916 31.9731 3.78421 29.3976 5.94273C28.615 6.61992 22.098 12.8698 18.4126 18.1461C17.26 19.7827 16.7335 21.1793 16.7905 22.6748L19.1098 22.8864C18.939 21.8707 19.3232 20.7843 20.2909 19.4441C23.962 14.3229 30.2941 8.27055 30.8206 7.73445C31.2332 7.2971 31.845 7.70623 31.589 8.28466C31.3185 8.89131 28.5439 17.5677 24.9296 22.6748C23.9905 24.0151 23.1794 24.6358 22.226 24.9039L23.0087 27.0483ZM24.8584 23.1263L26.5802 22.3504C25.9114 19.7262 22.8236 17.5395 20.1485 17.7793L19.8639 19.6698C21.6427 19.3031 24.5596 21.3204 24.8584 23.1263Z"
        fill="#20C997" />
</svg>