<svg width="34" height="25" viewBox="0 0 34 25" fill="none" xmlns="http://www.w3.org/2000/svg">
    <path
        d="M3.15781 25H6.75719C8.84456 25 9.92839 24.0043 9.92839 22.0393V10.7143C9.92839 8.74934 8.84456 7.74031 6.75719 7.74031H3.15781C1.07045 7.74031 0 8.74934 0 10.7143V22.0393C0 24.0043 1.07045 25 3.15781 25ZM3.50571 22.9953C2.48879 22.9953 2.12751 22.65 2.12751 21.6543V11.0993C2.12751 10.0903 2.48879 9.74509 3.50571 9.74509H6.4093C7.4396 9.74509 7.80088 10.0903 7.80088 11.0993V21.6543C7.80088 22.65 7.4396 22.9953 6.4093 22.9953H3.50571ZM15.187 25H18.7997C20.8871 25 21.9576 24.0043 21.9576 22.0393V6.85078C21.9576 4.88582 20.8871 3.8768 18.7997 3.8768H15.187C13.0996 3.8768 12.0292 4.88582 12.0292 6.85078V22.0393C12.0292 24.0043 13.0996 25 15.187 25ZM15.5482 22.9953C14.5179 22.9953 14.1566 22.65 14.1566 21.6543V7.2358C14.1566 6.24004 14.5179 5.88158 15.5482 5.88158H18.4519C19.4821 5.88158 19.83 6.24004 19.83 7.2358V21.6543C19.83 22.65 19.4821 22.9953 18.4519 22.9953H15.5482ZM27.2161 25H30.8289C32.9162 25 34 24.0043 34 22.0393V2.97398C34 1.00903 32.9162 0 30.8289 0H27.2161C25.1421 0 24.0716 1.00903 24.0716 2.97398V22.0393C24.0716 24.0043 25.1421 25 27.2161 25ZM27.5773 22.9953C26.5604 22.9953 26.1992 22.65 26.1992 21.6543V3.359C26.1992 2.36325 26.5604 2.00478 27.5773 2.00478H30.4809C31.5113 2.00478 31.8726 2.36325 31.8726 3.359V21.6543C31.8726 22.65 31.5113 22.9953 30.4809 22.9953H27.5773Z"
        fill="#20C997" />
</svg>