<svg width="25" height="35" viewBox="0 0 25 35" fill="none" xmlns="http://www.w3.org/2000/svg">
    <path
        d="M6.22772 15.7305C6.92629 15.7305 7.4911 15.1816 7.4911 14.5027C7.4911 13.8237 6.92629 13.2748 6.22772 13.2748C5.544 13.2748 4.96433 13.8383 4.96433 14.5027C4.96433 15.1672 5.544 15.7305 6.22772 15.7305ZM6.22772 20.8441C6.92629 20.8441 7.4911 20.2951 7.4911 19.6162C7.4911 18.9373 6.92629 18.4028 6.22772 18.4028C5.52915 18.4028 4.96433 18.9517 4.96433 19.6162C4.96433 20.2951 5.52915 20.8441 6.22772 20.8441ZM6.22772 26.2609C6.92629 26.2609 7.4911 25.712 7.4911 25.0331C7.4911 24.3541 6.92629 23.8052 6.22772 23.8052C5.544 23.8052 4.96433 24.3685 4.96433 25.0331C4.96433 25.6976 5.544 26.2609 6.22772 26.2609ZM10.1962 15.3983H19.1142C19.6196 15.3983 20.0357 14.9939 20.0357 14.5027C20.0357 14.0116 19.6196 13.5926 19.1142 13.5926H10.1962C9.69086 13.5926 9.25983 14.0116 9.25983 14.5027C9.25983 14.9939 9.69086 15.3983 10.1962 15.3983ZM10.1962 20.5262H19.1142C19.6344 20.5262 20.0357 20.1217 20.0357 19.6162C20.0357 19.125 19.6344 18.735 19.1142 18.735H10.1962C9.676 18.735 9.25983 19.125 9.25983 19.6162C9.25983 20.1217 9.676 20.5262 10.1962 20.5262ZM10.1962 25.9287H19.1142C19.6196 25.9287 20.0357 25.5241 20.0357 25.0331C20.0357 24.542 19.6344 24.1374 19.1142 24.1374H10.1962C9.676 24.1374 9.25983 24.542 9.25983 25.0331C9.25983 25.5241 9.69086 25.9287 10.1962 25.9287ZM4.60762 35H20.3924C23.4691 35 25 33.4978 25 30.4643V8.56584C25 5.60463 23.5286 4.03013 20.5559 4.03013H20.1992C20.2141 4.14569 20.2141 4.2757 20.2141 4.39125V5.6913C20.2141 5.92242 20.1992 6.15354 20.1546 6.35576H20.5114C21.9084 6.35576 22.607 7.2369 22.607 8.59473V30.4354C22.607 31.88 21.8193 32.6744 20.2736 32.6744H4.72652C3.18074 32.6744 2.39299 31.88 2.39299 30.4354V8.59473C2.39299 7.2369 3.09156 6.35576 4.48871 6.35576H4.84543C4.80085 6.15354 4.78598 5.92242 4.78598 5.6913V4.39125C4.78598 4.2757 4.78598 4.14569 4.80085 4.03013H4.44413C1.47147 4.03013 0 5.60463 0 8.56584V30.4643C0 33.4978 1.53092 35 4.60762 35ZM7.90727 7.33801H17.0928C17.9548 7.33801 18.4751 6.80356 18.4751 5.90797V4.39125C18.4751 3.49567 17.9548 2.9612 17.0928 2.9612H15.7253C15.6213 1.32893 14.2241 0 12.5 0C10.7759 0 9.37873 1.32893 9.27469 2.9612H7.90727C7.0452 2.9612 6.52498 3.49567 6.52498 4.39125V5.90797C6.52498 6.80356 7.0452 7.33801 7.90727 7.33801ZM12.5 4.33347C11.7866 4.33347 11.2069 3.75568 11.2069 3.07676C11.2069 2.36897 11.7866 1.80561 12.5 1.80561C13.2135 1.80561 13.7931 2.36897 13.7931 3.07676C13.7931 3.75568 13.2135 4.33347 12.5 4.33347Z"
        fill="#20C997" />
</svg>