<svg width="28" height="24" viewBox="0 0 28 24" fill="none" xmlns="http://www.w3.org/2000/svg">
    <path
        d="M9.86307 18.0672H24.0207C24.494 18.0672 24.9064 17.6765 24.9064 17.1516C24.9064 16.6267 24.494 16.236 24.0207 16.236H10.0693C9.3778 16.236 8.9532 15.7477 8.84401 15.0031L6.85441 1.41608C6.7331 0.476103 6.39341 0 5.15598 0H0.897747C0.412478 0 0 0.427267 0 0.915569C0 1.41608 0.412478 1.84335 0.897747 1.84335H4.99826L6.93933 15.2472C7.1941 16.9807 8.10397 18.0672 9.86307 18.0672ZM7.63084 13.7212H24.0451C25.8163 13.7212 26.7261 12.6226 26.9809 10.877L27.9514 4.41913C27.9757 4.26043 28 4.06511 28 3.95525C28 3.36928 27.5632 2.96643 26.896 2.96643H6.57538L6.58751 4.80977H25.9376L25.0763 10.6572C24.9792 11.4141 24.5788 11.8901 23.8631 11.8901H7.60658L7.63084 13.7212ZM10.8215 24C11.9133 24 12.7869 23.1333 12.7869 22.0224C12.7869 20.9237 11.9133 20.0447 10.8215 20.0447C9.7175 20.0447 8.84401 20.9237 8.84401 22.0224C8.84401 23.1333 9.7175 24 10.8215 24ZM22.1647 24C23.2686 24 24.1421 23.1333 24.1421 22.0224C24.1421 20.9237 23.2686 20.0447 22.1647 20.0447C21.0728 20.0447 20.1872 20.9237 20.1872 22.0224C20.1872 23.1333 21.0728 24 22.1647 24Z"
        fill="white" />
</svg>