<svg width="22" height="22" viewBox="0 0 22 22" fill="none" xmlns="http://www.w3.org/2000/svg">
    <path
        d="M18.2739 18.2739C22.3356 14.2121 22.3283 7.47909 18.2739 3.42462C14.2122 -0.637077 7.47909 -0.629846 3.41735 3.43189C-0.637078 7.48632 -0.637078 14.2122 3.42462 18.2739C7.47909 22.3283 14.2194 22.3283 18.2739 18.2739ZM17.0365 17.0365C13.6008 20.4722 8.10509 20.4649 4.66934 17.0291C1.23365 13.5934 1.21909 8.10504 4.65479 4.66933C8.09054 1.23359 13.6008 1.22631 17.0365 4.66201C20.4722 8.09775 20.4722 13.6007 17.0365 17.0365ZM7.47177 14.2267C7.82843 14.5834 8.31618 14.5761 8.68742 14.2049L10.8274 12.0649L12.9747 14.2122C13.3387 14.5761 13.841 14.5834 14.1977 14.2267C14.5616 13.8628 14.5689 13.3605 14.1977 12.9893L12.0504 10.842L14.1977 8.69467C14.5616 8.33068 14.5761 7.83569 14.2195 7.47903C13.8555 7.1151 13.346 7.11504 12.982 7.47903L10.8347 9.62633L8.69469 7.48631C8.32345 7.11507 7.81389 7.11511 7.44996 7.47903C7.0933 7.8357 7.10054 8.33799 7.47177 8.70922L9.61179 10.8492L7.47177 12.9893C7.10054 13.3605 7.10784 13.8628 7.47177 14.2267Z"
        fill="#d64343" />
</svg>