<svg width="26" height="16" viewBox="0 0 26 16" fill="none" xmlns="http://www.w3.org/2000/svg">
    <path
        d="M5.70974 6.22517C5.70974 5.78366 5.98892 5.50993 6.45722 5.50993H8.07827V3.96468C8.07827 3.51435 8.33949 3.24062 8.78975 3.24062C9.23103 3.24062 9.50124 3.51435 9.50124 3.96468V5.50993H11.0233C11.5275 5.50993 11.8247 5.78366 11.8247 6.22517C11.8247 6.68432 11.5275 6.96688 11.0233 6.96688H9.50124V8.51214C9.50124 8.96243 9.23103 9.24499 8.78975 9.24499C8.33949 9.24499 8.07827 8.96243 8.07827 8.51214V6.96688H6.45722C5.98892 6.96688 5.70974 6.68432 5.70974 6.22517ZM14.5625 7.46136C14.5625 6.7373 15.1389 6.18101 15.8594 6.18101C16.5888 6.18101 17.1562 6.7373 17.1562 7.46136C17.1562 8.17661 16.5888 8.73292 15.8594 8.73292C15.1389 8.73292 14.5625 8.17661 14.5625 7.46136ZM17.2192 4.84768C17.2192 4.12362 17.7866 3.56733 18.5071 3.56733C19.2456 3.56733 19.8039 4.12362 19.8039 4.84768C19.8039 5.56291 19.2456 6.11037 18.5071 6.11037C17.7866 6.11037 17.2192 5.56291 17.2192 4.84768ZM3.43124 16C4.66505 16 5.51161 15.5585 6.2681 14.6402L7.89814 12.7064C8.1323 12.4327 8.40251 12.3002 8.67271 12.3002H17.3274C17.5975 12.3002 17.8677 12.4327 18.1019 12.7064L19.7319 14.6402C20.4884 15.5585 21.335 16 22.5688 16C24.6311 16 26 14.6578 26 12.5916C26 11.7086 25.7929 10.6931 25.4417 9.55408C24.8923 7.74396 23.9287 5.28035 23.0101 3.37307C22.2356 1.78367 21.8393 1.0596 19.9301 0.635762C18.237 0.25607 15.8864 0 13.0045 0C10.1226 0 7.76311 0.25607 6.06998 0.635762C4.16072 1.0596 3.76447 1.78367 2.98995 3.37307C2.07135 5.28035 1.10773 7.74396 0.558365 9.55408C0.207135 10.6931 0 11.7086 0 12.5916C0 14.6578 1.3689 16 3.43124 16Z"
        fill="white" />
</svg>