<svg width="25" height="14" viewBox="0 0 25 14" fill="none" xmlns="http://www.w3.org/2000/svg">
    <path
        d="M12.5072 14C12.867 14 13.2268 13.8568 13.4715 13.5848L24.6114 2.23313C24.8561 1.98977 25 1.67484 25 1.31698C25 0.572596 24.4386 0 23.6903 0C23.3304 0 22.9994 0.143152 22.7547 0.37219L11.73 11.5807H13.27L2.24524 0.37219C2.01496 0.143152 1.68393 0 1.30973 0C0.561311 0 0 0.572596 0 1.31698C0 1.67484 0.143927 1.98977 0.3886 2.24745L11.5285 13.5848C11.8019 13.8568 12.133 14 12.5072 14Z"
        fill="#B8BFD7" />
</svg>