<svg width="20" height="15" viewBox="0 0 20 15" fill="none" xmlns="http://www.w3.org/2000/svg">
<path id="Vector" d="M16.9308 1.24345C15.6342 0.657799 14.2658 0.240171 12.8599 0.0010307C12.8471 -0.00131362 12.8339 0.00036454 12.8222 0.00582624C12.8104 0.0112879 12.8008 0.020255 12.7945 0.0314518C12.6187 0.339187 12.4239 0.740564 12.2876 1.05601C10.7503 0.829531 9.22091 0.829531 7.71524 1.05601C7.57891 0.733512 7.37708 0.339187 7.20049 0.0314518C7.19395 0.0205102 7.18421 0.0117625 7.17254 0.00635036C7.16087 0.000938253 7.14782 -0.00088689 7.13508 0.00111281C5.72906 0.239697 4.36058 0.657289 3.06408 1.24337C3.05299 1.24803 3.04364 1.25597 3.03733 1.26608C0.444503 5.07764 -0.26583 8.79548 0.0826699 12.4672C0.0836553 12.4762 0.0864642 12.4849 0.0909302 12.4928C0.0953963 12.5007 0.101429 12.5077 0.10867 12.5132C1.81933 13.7494 3.47642 14.4999 5.10275 14.9973C5.11539 15.001 5.12889 15.0008 5.14143 14.9968C5.15397 14.9927 5.16495 14.985 5.17291 14.9746C5.55758 14.4577 5.9005 13.9126 6.19458 13.3394C6.19862 13.3316 6.20093 13.323 6.20135 13.3142C6.20177 13.3054 6.20029 13.2966 6.19702 13.2885C6.19374 13.2803 6.18874 13.2729 6.18235 13.2667C6.17595 13.2606 6.16831 13.2558 6.15991 13.2528C5.61591 13.0497 5.098 12.8022 4.59975 12.5211C4.59066 12.5159 4.58303 12.5085 4.57752 12.4996C4.57202 12.4908 4.56881 12.4808 4.56819 12.4704C4.56756 12.4601 4.56954 12.4497 4.57394 12.4403C4.57833 12.4309 4.58502 12.4227 4.59341 12.4164C4.69825 12.3391 4.80316 12.2587 4.90325 12.1775C4.91214 12.1702 4.92291 12.1656 4.93433 12.1641C4.94576 12.1626 4.95739 12.1642 4.96791 12.1688C8.24108 13.6393 11.7846 13.6393 15.0191 12.1688C15.0296 12.1639 15.0413 12.162 15.0529 12.1634C15.0645 12.1648 15.0754 12.1694 15.0845 12.1766C15.1846 12.2578 15.2895 12.3391 15.3951 12.4164C15.4036 12.4226 15.4103 12.4308 15.4147 12.4401C15.4192 12.4495 15.4213 12.4598 15.4207 12.4702C15.4202 12.4805 15.417 12.4905 15.4116 12.4994C15.4062 12.5083 15.3987 12.5157 15.3896 12.521C14.8912 12.8075 14.3691 13.052 13.8288 13.252C13.8204 13.2551 13.8128 13.26 13.8065 13.2662C13.8001 13.2725 13.7952 13.28 13.792 13.2882C13.7888 13.2965 13.7874 13.3053 13.7879 13.3141C13.7884 13.323 13.7908 13.3316 13.7949 13.3394C14.0952 13.9118 14.4381 14.4569 14.8157 14.9738C14.8234 14.9845 14.8344 14.9925 14.847 14.9967C14.8596 15.0009 14.8732 15.0011 14.8859 14.9973C16.5201 14.4998 18.1771 13.7493 19.8878 12.5132C19.8952 12.5079 19.9013 12.5012 19.9058 12.4934C19.9103 12.4856 19.9131 12.4769 19.9139 12.468C20.3309 8.22298 19.2154 4.53564 16.9568 1.26682C16.9513 1.2562 16.942 1.24797 16.9308 1.24345ZM6.68333 10.2315C5.69791 10.2315 4.88591 9.34126 4.88591 8.24799C4.88591 7.1548 5.68216 6.26456 6.68341 6.26456C7.69241 6.26456 8.49649 7.16259 8.48074 8.24807C8.48074 9.34126 7.68449 10.2315 6.68333 10.2315ZM13.329 10.2315C12.3436 10.2315 11.5316 9.34126 11.5316 8.24799C11.5316 7.1548 12.3277 6.26456 13.329 6.26456C14.338 6.26456 15.1421 7.16259 15.1263 8.24807C15.1263 9.34126 14.338 10.2315 13.329 10.2315Z" fill="white"/>
</svg>