<svg width="32" height="24" viewBox="0 0 32 24" fill="none" xmlns="http://www.w3.org/2000/svg">
    <path
        d="M27.0893 1.98953C25.0147 1.05248 22.8252 0.384274 20.5758 0.00164913C20.5554 -0.00210179 20.5343 0.000583264 20.5155 0.00932198C20.4967 0.0180607 20.4812 0.032408 20.4712 0.0503228C20.1898 0.5427 19.8782 1.1849 19.6601 1.68961C17.2005 1.32725 14.7535 1.32725 12.3444 1.68961C12.1263 1.17362 11.8033 0.5427 11.5208 0.0503228C11.5103 0.0328163 11.4947 0.01882 11.4761 0.0101606C11.4574 0.00150121 11.4365 -0.00141902 11.4161 0.0017805C9.1665 0.383516 6.97692 1.05166 4.90253 1.98939C4.88479 1.99686 4.86983 2.00955 4.85973 2.02573C0.711205 8.12423 -0.425327 14.0728 0.132272 19.9476C0.133848 19.962 0.138343 19.9759 0.145488 19.9885C0.152634 20.0012 0.162286 20.0123 0.173872 20.0212C2.91093 21.9991 5.56226 23.1998 8.16439 23.9956C8.18463 24.0016 8.20622 24.0013 8.22629 23.9948C8.24635 23.9883 8.26393 23.976 8.27666 23.9594C8.89213 23.1324 9.44079 22.2602 9.91133 21.3431C9.91779 21.3306 9.92148 21.3168 9.92216 21.3027C9.92283 21.2887 9.92047 21.2746 9.91523 21.2615C9.90999 21.2484 9.90199 21.2366 9.89176 21.2267C9.88152 21.2169 9.86929 21.2093 9.85586 21.2044C8.98546 20.8796 8.15679 20.4835 7.3596 20.0338C7.34506 20.0254 7.33285 20.0136 7.32404 19.9994C7.31523 19.9853 7.3101 19.9692 7.3091 19.9527C7.3081 19.9361 7.31126 19.9196 7.3183 19.9045C7.32534 19.8894 7.33604 19.8763 7.34946 19.8662C7.5172 19.7425 7.68506 19.6139 7.8452 19.4839C7.85943 19.4724 7.87665 19.465 7.89493 19.4625C7.91321 19.4601 7.93182 19.4627 7.94866 19.4702C13.1857 21.8229 18.8553 21.8229 24.0305 19.4702C24.0474 19.4623 24.0661 19.4593 24.0847 19.4615C24.1032 19.4637 24.1207 19.471 24.1352 19.4826C24.2954 19.6125 24.4632 19.7425 24.6322 19.8662C24.6457 19.8762 24.6565 19.8892 24.6636 19.9042C24.6707 19.9192 24.674 19.9357 24.6731 19.9522C24.6723 19.9688 24.6673 19.9849 24.6586 19.999C24.6499 20.0132 24.6379 20.0251 24.6234 20.0336C23.8259 20.492 22.9905 20.8832 22.1261 21.2031C22.1127 21.2082 22.1005 21.216 22.0903 21.226C22.0802 21.236 22.0723 21.248 22.0672 21.2612C22.062 21.2744 22.0598 21.2885 22.0606 21.3026C22.0614 21.3168 22.0652 21.3305 22.0718 21.3431C22.5524 22.2589 23.101 23.131 23.7052 23.9581C23.7175 23.9752 23.735 23.988 23.7551 23.9947C23.7753 24.0014 23.7971 24.0018 23.8174 23.9956C26.4321 23.1997 29.0834 21.999 31.8205 20.0212C31.8323 20.0127 31.8421 20.0019 31.8493 19.9894C31.8565 19.9769 31.8609 19.9631 31.8622 19.9488C32.5294 13.1568 30.7446 7.25703 27.1309 2.02692C27.122 2.00992 27.1073 1.99675 27.0893 1.98953ZM10.6933 16.3704C9.11666 16.3704 7.81746 14.946 7.81746 13.1968C7.81746 11.4477 9.09146 10.0233 10.6935 10.0233C12.3079 10.0233 13.5944 11.4601 13.5692 13.1969C13.5692 14.946 12.2952 16.3704 10.6933 16.3704ZM21.3264 16.3704C19.7497 16.3704 18.4505 14.946 18.4505 13.1968C18.4505 11.4477 19.7244 10.0233 21.3264 10.0233C22.9408 10.0233 24.2273 11.4601 24.2021 13.1969C24.2021 14.946 22.9408 16.3704 21.3264 16.3704Z"
        fill="white" />
</svg>