<svg width="34" height="25" viewBox="0 0 34 25" fill="none" xmlns="http://www.w3.org/2000/svg">
<path d="M28.7683 2.07758C26.6149 1.10908 24.2834 0.406144 21.8548 0C21.8335 -0.000657021 21.8123 0.00319856 21.7927 0.0112953C21.7731 0.0193921 21.7556 0.0315339 21.7414 0.0468636C21.45 0.562354 21.11 1.23405 20.8833 1.74954C18.3073 1.37464 15.6876 1.37464 13.1117 1.74954C12.885 1.21843 12.545 0.562354 12.2374 0.0468636C12.2212 0.0156217 12.1726 0 12.124 0C9.69538 0.406144 7.38007 1.10908 5.21049 2.07758C5.1943 2.07758 5.17811 2.0932 5.16192 2.10882C0.757988 8.46653 -0.456331 14.6524 0.142733 20.7758C0.142733 20.8071 0.158924 20.8383 0.191306 20.8539C3.10567 22.9159 5.9067 24.1656 8.67535 24.9935C8.72392 25.0091 8.77249 24.9935 8.78868 24.9622C9.43632 24.1031 10.0192 23.1971 10.5211 22.2442C10.5535 22.1817 10.5211 22.1192 10.4563 22.1036C9.53347 21.7599 8.65916 21.3538 7.80104 20.8852C7.73627 20.8539 7.73627 20.7602 7.78485 20.7133C7.96295 20.5884 8.14105 20.4478 8.31915 20.3228C8.35153 20.2916 8.4001 20.2916 8.43248 20.3072C14.0022 22.7597 20.009 22.7597 25.5139 20.3072C25.5463 20.2916 25.5949 20.2916 25.6272 20.3228C25.8053 20.4634 25.9834 20.5884 26.1615 20.729C26.2263 20.7758 26.2263 20.8695 26.1453 20.9008C25.3034 21.385 24.4129 21.7755 23.49 22.1192C23.4253 22.1348 23.4091 22.2129 23.4253 22.2598C23.9434 23.2127 24.5263 24.1187 25.1577 24.9778C25.2063 24.9935 25.2548 25.0091 25.3034 24.9935C28.0883 24.1656 30.8893 22.9159 33.8037 20.8539C33.836 20.8383 33.8522 20.8071 33.8522 20.7758C34.5646 13.6995 32.6703 7.56052 28.833 2.10882C28.8168 2.0932 28.8007 2.07758 28.7683 2.07758ZM11.363 17.0424C9.69538 17.0424 8.30296 15.5584 8.30296 13.7308C8.30296 11.9031 9.663 10.4191 11.363 10.4191C13.0793 10.4191 14.4393 11.9188 14.4231 13.7308C14.4231 15.5584 13.0631 17.0424 11.363 17.0424ZM22.6481 17.0424C20.9804 17.0424 19.588 15.5584 19.588 13.7308C19.588 11.9031 20.9481 10.4191 22.6481 10.4191C24.3643 10.4191 25.7244 11.9188 25.7082 13.7308C25.7082 15.5584 24.3643 17.0424 22.6481 17.0424Z" fill="#15171D"/>
</svg>
