<svg width="31" height="27" viewBox="0 0 31 27" fill="none" xmlns="http://www.w3.org/2000/svg">
    <path
        d="M18.7801 17.8833V19.8274H24.9455C28.7312 19.8274 31 17.5935 31 14.6713C31 12.2321 29.508 10.2277 27.1034 9.2737C27.1281 3.8882 23.1698 0 18.1266 0C14.7848 0 12.405 1.7509 10.9252 3.86405C8.12611 3.12747 4.58712 5.2527 4.52546 8.64577C1.73866 9.06844 0 11.3024 0 14.1521C0 17.2917 2.40454 19.8274 6.4491 19.8274H12.331V17.8833H6.43677C3.51432 17.8833 1.98529 16.229 1.98529 14.1521C1.98529 11.8457 3.47733 10.1311 6.09149 10.1311C6.26412 10.1311 6.32579 10.0345 6.32579 9.87752C6.32579 6.1704 9.05092 5.14402 11.5911 5.86852C11.739 5.91683 11.8254 5.89268 11.8994 5.75985C13.0955 3.67085 14.9328 1.9441 18.1266 1.9441C22.1711 1.9441 24.9702 5.08364 25.1798 8.68204C25.2168 9.22537 25.1798 9.87752 25.1305 10.445C25.1182 10.602 25.1798 10.6986 25.3278 10.7228C27.572 11.2057 29.0147 12.5824 29.0147 14.6713C29.0147 16.5309 27.6337 17.8833 24.9332 17.8833H18.7801ZM15.5617 27C15.8083 27 16.0056 26.9035 16.2645 26.674L20.4324 22.8583C20.6297 22.6892 20.7283 22.4839 20.7283 22.2183C20.7283 21.7353 20.3337 21.373 19.8282 21.373C19.5939 21.373 19.3473 21.4817 19.1623 21.6629L17.288 23.4982L16.4618 24.3435L16.5358 22.5443V12.1838C16.5358 11.6767 16.0919 11.242 15.5617 11.242C15.0315 11.242 14.5752 11.6767 14.5752 12.1838V22.5443L14.6492 24.3555L13.823 23.4982L11.9487 21.6629C11.7638 21.4817 11.5048 21.373 11.2705 21.373C10.7527 21.373 10.3827 21.7353 10.3827 22.2183C10.3827 22.4839 10.4813 22.6892 10.6786 22.8583L14.8465 26.674C15.1055 26.9035 15.3028 27 15.5617 27Z"
        fill="white" />
</svg>