<svg width="18" height="17" viewBox="0 0 18 17" fill="none" xmlns="http://www.w3.org/2000/svg">
<path id="Vector" d="M6.82448 16.1663H11.1755V10.2736C11.1755 9.90135 10.9493 9.6585 10.6024 9.6585H7.40509C7.05066 9.6585 6.82448 9.90135 6.82448 10.2736V16.1663ZM3.87599 17H14.0787C15.1496 17 15.7754 16.3444 15.7754 15.2112V6.26699L14.5613 5.37662V14.8793C14.5613 15.4054 14.2975 15.6968 13.8224 15.6968H4.13238C3.64977 15.6968 3.38584 15.4054 3.38584 14.8793V5.38472L2.17176 6.26699V15.2112C2.17176 16.3444 2.79765 17 3.87599 17ZM0 7.99105C0 8.32294 0.241307 8.63859 0.64851 8.63859C0.859657 8.63859 1.0331 8.51723 1.19145 8.37957L8.73981 1.58041C8.9057 1.41852 9.1093 1.41852 9.27525 1.58041L16.8236 8.37957C16.9744 8.51723 17.1478 8.63859 17.359 8.63859C17.7134 8.63859 18 8.40389 18 8.01536C18 7.77251 17.9246 7.61067 17.7662 7.46493L9.91623 0.382454C9.3582 -0.127485 8.66439 -0.127485 8.09883 0.382454L0.241307 7.46493C0.0754087 7.61067 0 7.8049 0 7.99105ZM13.8827 4.34056L15.7754 6.05654V2.31698C15.7754 1.96084 15.5643 1.7342 15.2325 1.7342H14.4256C14.1014 1.7342 13.8827 1.96084 13.8827 2.31698V4.34056Z" fill="white"/>
</svg>
