<svg width="135" height="81" viewBox="0 0 135 81" fill="none" xmlns="http://www.w3.org/2000/svg">
    <circle cx="3.5" cy="3.5" r="3.5" transform="matrix(1 0 0 -1 128 7)" fill="white" fill-opacity="0.25" />
    <circle cx="3.5" cy="3.5" r="3.5" transform="matrix(1 0 0 -1 96 7)" fill="white" fill-opacity="0.25" />
    <circle cx="3.5" cy="3.5" r="3.5" transform="matrix(1 0 0 -1 64 7)" fill="white" fill-opacity="0.25" />
    <circle cx="3.5" cy="3.5" r="3.5" transform="matrix(1 0 0 -1 32 7)" fill="white" fill-opacity="0.25" />
    <circle cx="3.5" cy="3.5" r="3.5" transform="matrix(1 0 0 -1 0 7)" fill="white" fill-opacity="0.25" />
    <circle cx="3.5" cy="3.5" r="3.5" transform="matrix(1 0 0 -1 128 44)" fill="white" fill-opacity="0.25" />
    <circle cx="3.5" cy="3.5" r="3.5" transform="matrix(1 0 0 -1 96 44)" fill="white" fill-opacity="0.25" />
    <circle cx="3.5" cy="3.5" r="3.5" transform="matrix(1 0 0 -1 64 44)" fill="white" fill-opacity="0.25" />
    <circle cx="3.5" cy="3.5" r="3.5" transform="matrix(1 0 0 -1 32 44)" fill="white" fill-opacity="0.25" />
    <circle cx="3.5" cy="3.5" r="3.5" transform="matrix(1 0 0 -1 0 44)" fill="white" fill-opacity="0.25" />
    <circle cx="3.5" cy="3.5" r="3.5" transform="matrix(1 0 0 -1 128 81)" fill="white" fill-opacity="0.25" />
    <circle cx="3.5" cy="3.5" r="3.5" transform="matrix(1 0 0 -1 96 81)" fill="white" fill-opacity="0.25" />
    <circle cx="3.5" cy="3.5" r="3.5" transform="matrix(1 0 0 -1 64 81)" fill="white" fill-opacity="0.25" />
    <circle cx="3.5" cy="3.5" r="3.5" transform="matrix(1 0 0 -1 32 81)" fill="white" fill-opacity="0.25" />
    <circle cx="3.5" cy="3.5" r="3.5" transform="matrix(1 0 0 -1 0 81)" fill="white" fill-opacity="0.25" />
</svg>