<svg width="86" height="52" viewBox="0 0 86 52" fill="none" xmlns="http://www.w3.org/2000/svg">
<circle cx="2.22963" cy="2.22963" r="2.22963" transform="matrix(1 0 0 -1 81.5405 4.45923)" fill="white"/>
<circle cx="2.22963" cy="2.22963" r="2.22963" transform="matrix(1 0 0 -1 61.1558 4.45923)" fill="white"/>
<circle cx="2.22963" cy="2.22963" r="2.22963" transform="matrix(1 0 0 -1 40.7705 4.45923)" fill="white"/>
<circle cx="2.22963" cy="2.22963" r="2.22963" transform="matrix(1 0 0 -1 20.3853 4.45923)" fill="white"/>
<circle cx="2.22963" cy="2.22963" r="2.22963" transform="matrix(1 0 0 -1 0 4.45923)" fill="white"/>
<circle cx="2.22963" cy="2.22963" r="2.22963" transform="matrix(1 0 0 -1 81.5405 28.0295)" fill="white"/>
<circle cx="2.22963" cy="2.22963" r="2.22963" transform="matrix(1 0 0 -1 61.1558 28.0295)" fill="white"/>
<circle cx="2.22963" cy="2.22963" r="2.22963" transform="matrix(1 0 0 -1 40.7705 28.0295)" fill="white"/>
<circle cx="2.22963" cy="2.22963" r="2.22963" transform="matrix(1 0 0 -1 20.3853 28.0295)" fill="white"/>
<circle cx="2.22963" cy="2.22963" r="2.22963" transform="matrix(1 0 0 -1 0 28.0295)" fill="white"/>
<circle cx="2.22963" cy="2.22963" r="2.22963" transform="matrix(1 0 0 -1 81.5405 51.6001)" fill="white"/>
<circle cx="2.22963" cy="2.22963" r="2.22963" transform="matrix(1 0 0 -1 61.1558 51.6001)" fill="white"/>
<circle cx="2.22963" cy="2.22963" r="2.22963" transform="matrix(1 0 0 -1 40.7705 51.6001)" fill="white"/>
<circle cx="2.22963" cy="2.22963" r="2.22963" transform="matrix(1 0 0 -1 20.3853 51.6001)" fill="white"/>
<circle cx="2.22963" cy="2.22963" r="2.22963" transform="matrix(1 0 0 -1 0 51.6001)" fill="white"/>
</svg>
