<svg width="18" height="14" viewBox="0 0 18 14" fill="none" xmlns="http://www.w3.org/2000/svg">
    <path
        d="M2.30131 14H15.6987C17.2232 14 18 13.2365 18 11.7241V4.03775C18 2.52543 17.2232 1.76927 15.6987 1.76927H13.6026C13.0236 1.76927 12.8478 1.65181 12.5179 1.28474L11.9316 0.624016C11.5652 0.22024 11.1914 0 10.4365 0H7.51222C6.75735 0 6.38354 0.22024 6.01711 0.624016L5.43079 1.28474C5.10099 1.64446 4.91776 1.76927 4.3461 1.76927H2.30131C0.769546 1.76927 0 2.52543 0 4.03775V11.7241C0 13.2365 0.769546 14 2.30131 14ZM2.31596 12.818C1.59772 12.818 1.17997 12.4289 1.17997 11.6654V4.10382C1.17997 3.34032 1.59772 2.95123 2.31596 2.95123H4.63926C5.29887 2.95123 5.65799 2.82642 6.02444 2.41531L6.59612 1.76927C7.01383 1.29942 7.23372 1.18196 7.87871 1.18196H10.0701C10.715 1.18196 10.9349 1.29942 11.3526 1.76927L11.9243 2.41531C12.2907 2.82642 12.6499 2.95123 13.3094 2.95123H15.6767C16.4023 2.95123 16.82 3.34032 16.82 4.10382V11.6654C16.82 12.4289 16.4023 12.818 15.6767 12.818H2.31596ZM9 11.7608C11.2134 11.7608 12.9943 9.98425 12.9943 7.74515C12.9943 5.51336 11.2207 3.73675 9 3.73675C6.7793 3.73675 4.99838 5.51336 4.99838 7.74515C4.99838 9.98425 6.7793 11.7608 9 11.7608ZM9 10.645C7.40965 10.645 6.10506 9.36023 6.10506 7.74515C6.10506 6.13738 7.40227 4.8453 9 4.8453C10.5977 4.8453 11.8876 6.13738 11.8876 7.74515C11.8876 9.36023 10.5977 10.645 9 10.645ZM13.2948 5.04351C13.2948 5.55741 13.7199 5.96118 14.2183 5.96118C14.7093 5.96118 15.1271 5.55007 15.1271 5.04351C15.1271 4.55898 14.7093 4.13319 14.2183 4.13319C13.7199 4.13319 13.2948 4.55898 13.2948 5.04351Z"
        fill="#B8BFD7" />
</svg>