<svg width="112" height="11" viewBox="0 0 112 11" fill="none" xmlns="http://www.w3.org/2000/svg">
<path d="M5.772 3.669C5.772 2.759 5.252 2.174 4.095 2.174H2.457V5.203H4.095C5.252 5.203 5.772 4.566 5.772 3.669ZM0.975 0.964999H4.095C6.24 0.964999 7.293 2.2 7.293 3.669C7.293 4.735 6.721 5.879 5.2 6.256L7.436 10H5.668L3.588 6.386H2.457V10H0.975V0.964999ZM25.0749 5.463C25.0749 8.18 23.0339 10.091 20.4599 10.091C17.9119 10.091 15.8449 8.18 15.8449 5.463C15.8449 2.759 17.9119 0.847999 20.4599 0.847999C23.0339 0.847999 25.0749 2.759 25.0749 5.463ZM17.3659 5.463C17.3659 7.504 18.6659 8.804 20.4599 8.804C22.2539 8.804 23.5539 7.504 23.5539 5.463C23.5539 3.422 22.2539 2.148 20.4599 2.148C18.6659 2.148 17.3659 3.422 17.3659 5.463ZM33.6832 0.964999H35.1652V8.804H38.2202V10H33.6832V0.964999ZM51.6016 0.951999V2.161H48.0916V4.813H51.2116V6.022H48.0916V8.791H51.6016V10H46.6096V0.951999H51.6016ZM62.059 5.125H63.697C64.854 5.125 65.374 4.566 65.374 3.656C65.374 2.72 64.854 2.174 63.697 2.174H62.059V5.125ZM66.895 3.656C66.895 4.943 66.05 6.334 63.697 6.334H62.059V10H60.577V0.964999H63.697C65.842 0.964999 66.895 2.187 66.895 3.656ZM75.4584 0.964999H76.9404V8.804H79.9954V10H75.4584V0.964999ZM94.4818 10L93.8318 8.154H90.0488L89.3988 10H87.8518L91.0888 0.951999H92.8048L96.0418 10H94.4818ZM93.4158 6.945L91.9468 2.746L90.4648 6.945H93.4158ZM106.822 6.724L103.819 0.964999H105.47L107.563 5.398L109.656 0.964999H111.294L108.304 6.724V10H106.822V6.724Z" fill="white"/>
</svg>
