<svg width="14" height="21" viewBox="0 0 14 21" fill="none" xmlns="http://www.w3.org/2000/svg">
<path id="Vector" d="M3.32938 9.23898H10.6706C10.9537 9.23898 11.195 8.99632 11.195 8.7016C11.195 8.40695 10.9537 8.15557 10.6706 8.15557H3.32938C3.04638 8.15557 2.805 8.40695 2.805 8.7016C2.805 8.99632 3.04638 9.23898 3.32938 9.23898ZM3.32938 12.3157H10.6706C10.962 12.3157 11.195 12.073 11.195 11.7697C11.195 11.475 10.962 11.241 10.6706 11.241H3.32938C3.03805 11.241 2.805 11.475 2.805 11.7697C2.805 12.073 3.03805 12.3157 3.32938 12.3157ZM3.32938 15.5572H7.02498C7.30801 15.5572 7.54105 15.3145 7.54105 15.0198C7.54105 14.7252 7.31632 14.4825 7.02498 14.4825H3.32938C3.03805 14.4825 2.805 14.7252 2.805 15.0198C2.805 15.3145 3.04638 15.5572 3.32938 15.5572ZM2.58027 21H11.4197C13.1427 21 14 20.0987 14 18.2786V5.1395C14 3.36278 13.176 2.41808 11.5113 2.41808H11.3116C11.3199 2.48741 11.3199 2.56542 11.3199 2.63475V3.41478C11.3199 3.55345 11.3116 3.69212 11.2866 3.81346H11.4864C12.2687 3.81346 12.6599 4.34214 12.6599 5.15684V18.2613C12.6599 19.128 12.2188 19.6046 11.3532 19.6046H2.64685C1.78121 19.6046 1.34007 19.128 1.34007 18.2613V5.15684C1.34007 4.34214 1.73128 3.81346 2.51368 3.81346H2.71344C2.68847 3.69212 2.68015 3.55345 2.68015 3.41478V2.63475C2.68015 2.56542 2.68015 2.48741 2.68847 2.41808H2.48871C0.824023 2.41808 0 3.36278 0 5.1395V18.2786C0 20.0987 0.857314 21 2.58027 21ZM4.42807 4.40281H9.57198C10.0547 4.40281 10.346 4.08213 10.346 3.54478V2.63475C10.346 2.0974 10.0547 1.77672 9.57198 1.77672H8.80617C8.74793 0.797356 7.9655 0 7.00001 0C6.03449 0 5.25209 0.797356 5.19383 1.77672H4.42807C3.94531 1.77672 3.65399 2.0974 3.65399 2.63475V3.54478C3.65399 4.08213 3.94531 4.40281 4.42807 4.40281ZM7.00001 2.60008C6.60049 2.60008 6.27588 2.25341 6.27588 1.84606C6.27588 1.42138 6.60049 1.08337 7.00001 1.08337C7.39956 1.08337 7.72415 1.42138 7.72415 1.84606C7.72415 2.25341 7.39956 2.60008 7.00001 2.60008Z" fill="#575E74"/>
</svg>
