<svg width="14" height="18" viewBox="0 0 14 18" fill="none" xmlns="http://www.w3.org/2000/svg">
    <path
        d="M6.99999 18C7.13476 18 7.3538 17.9465 7.56434 17.8218C12.3574 14.9792 14 13.7762 14 10.5237V3.70692C14 2.77128 13.6209 2.47723 12.9049 2.15643C11.9109 1.7198 8.70157 0.499006 7.7076 0.133663C7.48009 0.0534649 7.23584 0 6.99999 0C6.76413 0 6.51984 0.0712871 6.30083 0.133663C5.30685 0.436631 2.08905 1.72871 1.09507 2.15643C0.387484 2.46832 0 2.77128 0 3.70692V10.5237C0 13.7762 1.65102 14.9703 6.4356 17.8218C6.65462 17.9465 6.86521 18 6.99999 18ZM6.99999 16.3871C6.86521 16.3871 6.73043 16.3337 6.47773 16.1732C2.58604 13.6782 1.33935 12.9475 1.33935 10.194V3.98317C1.33935 3.68019 1.38989 3.56435 1.62575 3.46633C2.90613 2.93168 5.39108 2.0495 6.66304 1.51485C6.79782 1.45247 6.90733 1.43465 6.99999 1.43465C7.09265 1.43465 7.20213 1.46139 7.33691 1.51485C8.60892 2.0495 11.077 2.99405 12.3827 3.46633C12.6101 3.55544 12.6606 3.68019 12.6606 3.98317V10.194C12.6606 12.9475 11.4139 13.6693 7.52222 16.1732C7.27796 16.3337 7.13476 16.3871 6.99999 16.3871Z"
        fill="#B8BFD7" />
</svg>