<svg width="20" height="17" viewBox="0 0 20 17" fill="none" xmlns="http://www.w3.org/2000/svg">
<path id="Vector" d="M7.04505 12.7976H17.1577C17.4957 12.7976 17.7903 12.5209 17.7903 12.149C17.7903 11.7772 17.4957 11.5005 17.1577 11.5005H7.19237C6.69843 11.5005 6.39514 11.1546 6.31715 10.6272L4.89601 1.00306C4.80936 0.337239 4.56672 0 3.68284 0H0.641248C0.294627 0 0 0.302648 0 0.648528C0 1.00306 0.294627 1.3057 0.641248 1.3057H3.57018L4.95666 10.8001C5.13864 12.028 5.78855 12.7976 7.04505 12.7976ZM5.4506 9.71922H17.1751C18.4402 9.71922 19.0901 8.94098 19.2721 7.70452L19.9653 3.13022C19.9826 3.01781 20 2.87946 20 2.80163C20 2.38658 19.688 2.10122 19.2114 2.10122H4.6967L4.70537 3.40692H18.5269L17.9116 7.54882C17.8423 8.08497 17.5563 8.42218 17.0451 8.42218H5.43327L5.4506 9.71922ZM7.72961 17C8.50952 17 9.13347 16.3861 9.13347 15.5992C9.13347 14.821 8.50952 14.1984 7.72961 14.1984C6.94107 14.1984 6.31715 14.821 6.31715 15.5992C6.31715 16.3861 6.94107 17 7.72961 17ZM15.8319 17C16.6205 17 17.2443 16.3861 17.2443 15.5992C17.2443 14.821 16.6205 14.1984 15.8319 14.1984C15.052 14.1984 14.4194 14.821 14.4194 15.5992C14.4194 16.3861 15.052 17 15.8319 17Z" fill="#575E74"/>
</svg>
