<svg width="22" height="25" viewBox="0 0 22 25" fill="none" xmlns="http://www.w3.org/2000/svg">
    <path
        d="M11.4904 0.0208333C12.855 0 14.2091 0.0104167 15.5633 0C15.6466 1.59375 16.2195 3.21875 17.3862 4.34375C18.5529 5.5 20.1987 6.03125 21.8029 6.20833V10.4063C20.3029 10.3542 18.7925 10.0417 17.4279 9.39583C16.8341 9.125 16.282 8.78125 15.7404 8.42708C15.73 11.4688 15.7508 14.5104 15.7195 17.5417C15.6362 19 15.157 20.4479 14.3133 21.6458C12.9487 23.6458 10.5841 24.9479 8.15705 24.9896C6.66746 25.0729 5.17788 24.6667 3.90705 23.9167C1.80288 22.6771 0.323713 20.4063 0.104964 17.9688C0.0841302 17.4479 0.0737135 16.9271 0.0945469 16.4167C0.282047 14.4375 1.26121 12.5417 2.78205 11.25C4.51121 9.75 6.92788 9.03125 9.1883 9.45833C9.20913 11 9.14663 12.5417 9.14663 14.0833C8.11538 13.75 6.90705 13.8438 6.0008 14.4688C5.34455 14.8958 4.84455 15.5521 4.58413 16.2917C4.36538 16.8229 4.42788 17.4063 4.4383 17.9688C4.6883 19.6771 6.33413 21.1146 8.08413 20.9583C9.2508 20.9479 10.3654 20.2708 10.9695 19.2813C11.1675 18.9375 11.3862 18.5833 11.3966 18.1771C11.5008 16.3125 11.4591 14.4583 11.4695 12.5938C11.48 8.39583 11.4591 4.20833 11.4904 0.0208333Z"
        fill="#15171D" />
</svg>