<svg width="113" height="15" viewBox="0 0 113 15" fill="none" xmlns="http://www.w3.org/2000/svg">
<path d="M0.48 3.7V0.96H11.34V3.7H7.62V15H4.2V3.7H0.48ZM27.4764 5.52C27.4764 4.48 26.8764 3.8 25.5964 3.8H23.4764V7.28H25.5964C26.8764 7.28 27.4764 6.62 27.4764 5.52ZM20.0564 0.96H25.7964C29.2364 0.96 30.9564 2.94 30.9564 5.38C30.9564 7.14 29.9964 8.8 27.8364 9.44L31.0764 15H27.2164L24.2964 9.7H23.4764V15H20.0564V0.96ZM43.8633 10.36L39.0033 0.96H42.8833L45.6033 6.84L48.3033 0.96H52.1433L47.2833 10.36V15H43.8633V10.36ZM70.1013 15L69.2613 12.52H64.0213L63.1813 15H59.6013L64.6813 0.96H68.6413L73.7213 15H70.1013ZM68.3813 9.88L66.6413 4.74L64.9213 9.88H68.3813ZM87.5273 0.96C92.0073 0.96 94.8873 3.8 94.8873 7.98C94.8873 12.14 92.0073 15 87.5273 15H82.2673V0.96H87.5273ZM85.6873 12.04H87.3073C89.8873 12.04 91.4073 10.56 91.4073 7.98C91.4073 5.4 89.8873 3.88 87.3073 3.88H85.6873V12.04ZM112.399 0.96V3.7H107.219V6.54H111.799V9.18H107.219V12.26H112.399V15H103.799V0.96H112.399Z" fill="white"/>
</svg>
