<svg width="30" height="25" viewBox="0 0 30 25" fill="none" xmlns="http://www.w3.org/2000/svg">
    <path
        d="M9.4344 25C20.7552 25 26.9472 15.3809 26.9472 7.0393C26.9472 6.76609 26.9472 6.49411 26.9292 6.22336C28.1338 5.32977 29.1736 4.22334 30 2.95587C28.8767 3.46661 27.685 3.8014 26.4648 3.94904C27.7498 3.16023 28.7114 1.9194 29.1708 0.457571C27.9626 1.19292 26.6408 1.71111 25.2624 1.98978C24.3344 0.977765 23.107 0.307634 21.7702 0.083088C20.4335 -0.141458 19.0618 0.0921005 17.8675 0.747621C16.6731 1.40314 15.7228 2.44408 15.1634 3.70935C14.6041 4.97462 14.4669 6.39368 14.7732 7.74695C12.3261 7.62106 9.9322 6.96884 7.74682 5.83262C5.56144 4.6964 3.63345 3.10158 2.088 1.15168C1.30091 2.54133 1.05984 4.18639 1.41387 5.75193C1.76791 7.31746 2.69043 8.68575 3.9936 9.57822C3.01404 9.54878 2.05581 9.27777 1.2 8.78812V8.86811C1.20039 10.3255 1.69231 11.7379 2.59234 12.8658C3.49236 13.9936 4.74508 14.7674 6.138 15.056C5.23185 15.3095 4.28109 15.3466 3.3588 15.1643C3.75227 16.4185 4.51804 17.5152 5.54905 18.3012C6.58006 19.0872 7.82478 19.5231 9.1092 19.548C7.83305 20.5768 6.37164 21.3374 4.80859 21.7864C3.24554 22.2353 1.61152 22.3638 0 22.1645C2.81479 24.017 6.08991 24.9996 9.4344 24.9951"
        fill="#15171D" />
</svg>