<svg width="19" height="19" viewBox="0 0 19 19" fill="none" xmlns="http://www.w3.org/2000/svg">
    <path
        d="M2.66456 19H16.3354C18.1408 19 19 18.4871 19 17.3585C19 14.6706 15.4001 10.7824 9.50543 10.7824C3.59988 10.7824 0 14.6706 0 17.3585C0 18.4871 0.859185 19 2.66456 19ZM2.1534 17.4509C1.87063 17.4509 1.751 17.3791 1.751 17.1637C1.751 15.4811 4.51344 12.3316 9.50543 12.3316C14.4865 12.3316 17.2489 15.4811 17.2489 17.1637C17.2489 17.3791 17.1403 17.4509 16.8575 17.4509H2.1534ZM9.50543 9.51028C12.0938 9.51028 14.2038 7.33532 14.2038 4.68846C14.2038 2.0621 12.1048 0 9.50543 0C6.92786 0 4.80709 2.10313 4.80709 4.70897C4.81797 7.34558 6.91698 9.51028 9.50543 9.51028ZM9.50543 7.96114C7.91756 7.96114 6.55809 6.52485 6.55809 4.70897C6.55809 2.92387 7.8958 1.54914 9.50543 1.54914C11.1259 1.54914 12.4528 2.90335 12.4528 4.68846C12.4528 6.50434 11.1041 7.96114 9.50543 7.96114Z"
        fill="#B8BFD7" />
</svg>