<svg width="14" height="18" viewBox="0 0 14 18" fill="none" xmlns="http://www.w3.org/2000/svg">
<g id="Group">
<path id="Vector" d="M4.9025 5.33533H11.1451C11.4447 5.33533 11.6861 5.08562 11.6861 4.78598C11.6861 4.48634 11.4447 4.24495 11.1451 4.24495H4.9025C4.60286 4.24495 4.36148 4.48634 4.36148 4.78598C4.36148 5.08562 4.60286 5.33533 4.9025 5.33533ZM4.9025 7.62429H9.63854C9.9382 7.62429 10.1795 7.37456 10.1795 7.07493C10.1795 6.77528 9.9382 6.5339 9.63854 6.5339H4.9025C4.60286 6.5339 4.36148 6.77528 4.36148 7.07493C4.36148 7.37456 4.60286 7.62429 4.9025 7.62429ZM2.5553 17.8371H13.3341C13.7004 17.8371 14 17.5458 14 17.1713C14 16.8799 13.8003 16.6219 13.5339 16.5303C12.4851 16.1142 12.2687 14.7574 13.3009 13.717C13.6172 13.4007 14 12.9929 14 12.1606V2.61356C14 0.882286 13.1427 0 11.4197 0H2.58027C0.857314 0 0 0.873962 0 2.61356V15.2652C0 16.9798 0.865638 17.8371 2.5553 17.8371ZM1.34007 13.0262V2.63853C1.34007 1.80619 1.78121 1.34007 2.63853 1.34007H11.3532C12.2188 1.34007 12.6599 1.80619 12.6599 2.63853V11.9774C12.6599 12.4269 12.4019 12.6849 11.9358 12.6849H2.6968C2.15577 12.6849 1.7063 12.8014 1.34007 13.0262ZM2.6302 16.4971C1.78954 16.4971 1.34007 16.0476 1.34007 15.2569C1.34007 14.5078 1.87278 14.025 2.70512 14.025H11.2449C11.3532 14.025 11.4531 14.0167 11.5363 14C11.1451 14.8657 11.2117 15.7813 11.6528 16.4971H2.6302ZM2.32224 13.4007H3.41261V1.01546H2.32224V13.4007Z" fill="#575E74"/>
</g>
</svg>
