<svg width="32" height="23" viewBox="0 0 32 23" fill="none" xmlns="http://www.w3.org/2000/svg">
    <path fill-rule="evenodd" clip-rule="evenodd"
        d="M30.297 1.75285C30.7934 2.26261 31.15 2.89646 31.3309 3.59097C32 6.15435 32 11.5 32 11.5C32 11.5 32 16.8456 31.3309 19.409C31.15 20.1035 30.7934 20.7374 30.297 21.2471C29.8005 21.7569 29.1814 22.1247 28.5018 22.3137C26 23 16 23 16 23C16 23 6 23 3.49818 22.3137C2.81857 22.1247 2.19955 21.7569 1.70305 21.2471C1.20655 20.7374 0.850007 20.1035 0.669091 19.409C0 16.8456 0 11.5 0 11.5C0 11.5 0 6.15435 0.669091 3.59097C0.850007 2.89646 1.20655 2.26261 1.70305 1.75285C2.19955 1.24309 2.81857 0.8753 3.49818 0.68629C6 0 16 0 16 0C16 0 26 0 28.5018 0.68629C29.1814 0.8753 29.8005 1.24309 30.297 1.75285ZM21.0908 11.5L12.7272 6.64591V16.3541L21.0908 11.5Z"
        fill="#15171D" />
</svg>